<?xml version="1.0" encoding="UTF-8" standalone="no"?>
<svg
   xmlns:dc="http://purl.org/dc/elements/1.1/"
   xmlns:cc="http://creativecommons.org/ns#"
   xmlns:rdf="http://www.w3.org/1999/02/22-rdf-syntax-ns#"
   xmlns:svg="http://www.w3.org/2000/svg"
   xmlns="http://www.w3.org/2000/svg"
   viewBox="0 0 1122.52 981.04535"
   height="981.04535"
   width="1122.52"
   xml:space="preserve"
   id="svg2"
   version="1.1"><metadata
     id="metadata8"><rdf:RDF><cc:Work
         rdf:about=""><dc:format>image/svg+xml</dc:format><dc:type
           rdf:resource="http://purl.org/dc/dcmitype/StillImage" /></cc:Work></rdf:RDF></metadata><defs
     id="defs6"><clipPath
       id="clipPath52"
       clipPathUnits="userSpaceOnUse"><path
         id="path50"
         d="M 0,735.784 H 841.89 V 0 H 0 Z" /></clipPath></defs><g
     transform="matrix(1.3333333,0,0,-1.3333333,0,981.04533)"
     id="g10"><path
       id="path12"
       style="fill:#003764;fill-opacity:1;fill-rule:nonzero;stroke:none"
       d="M 0,344.822 H 841.89 V 735.785 H 0 Z" /><g
       transform="translate(346.8131,457.1337)"
       id="g14"><path
         id="path16"
         style="fill:#ffffff;fill-opacity:1;fill-rule:nonzero;stroke:none"
         d="M 0,0 H 2.388 V -4.169 H 6.785 V 0 H 9.173 V -10.862 H 6.785 v 4.685 H 2.388 v -4.685 H 0 Z" /></g><g
       transform="translate(359.2242,457.1337)"
       id="g18"><path
         id="path20"
         style="fill:#ffffff;fill-opacity:1;fill-rule:nonzero;stroke:none"
         d="M 0,0 H 8.124 V -2.009 H 2.388 V -4.336 H 7.652 V -6.192 H 2.388 v -2.662 h 5.857 v -2.008 H 0 Z" /></g><g
       transform="translate(372.9596,450.4706)"
       id="g22"><path
         id="path24"
         style="fill:#ffffff;fill-opacity:1;fill-rule:nonzero;stroke:none"
         d="M 0,0 H 2.814 L 1.445,3.985 H 1.415 Z M 0.228,6.663 H 2.677 L 6.739,-4.199 H 4.26 L 3.438,-1.78 h -4.062 l -0.852,-2.419 h -2.419 z" /></g><g
       transform="translate(381.7804,457.1337)"
       id="g26"><path
         id="path28"
         style="fill:#ffffff;fill-opacity:1;fill-rule:nonzero;stroke:none"
         d="m 0,0 h 2.388 v -8.854 h 5.295 v -2.008 H 0 Z" /></g><g
       transform="translate(392.6559,455.1249)"
       id="g30"><path
         id="path32"
         style="fill:#ffffff;fill-opacity:1;fill-rule:nonzero;stroke:none"
         d="M 0,0 H -3.255 V 2.009 H 5.644 V 0 H 2.389 V -8.854 H 0 Z" /></g><g
       transform="translate(400.6861,457.1337)"
       id="g34"><path
         id="path36"
         style="fill:#ffffff;fill-opacity:1;fill-rule:nonzero;stroke:none"
         d="M 0,0 H 2.388 V -4.169 H 6.785 V 0 H 9.173 V -10.862 H 6.785 v 4.685 H 2.388 v -4.685 H 0 Z" /></g><g
       transform="translate(418.4669,457.1337)"
       id="g38"><path
         id="path40"
         style="fill:#ffffff;fill-opacity:1;fill-rule:nonzero;stroke:none"
         d="M 0,0 H 8.124 V -2.009 H 2.388 V -4.336 H 7.652 V -6.192 H 2.388 v -2.662 h 5.857 v -2.008 H 0 Z" /></g><g
       transform="translate(432.1256,451.9608)"
       id="g42"><path
         id="path44"
         style="fill:#ffffff;fill-opacity:1;fill-rule:nonzero;stroke:none"
         d="M 0,0 -3.499,5.173 H -0.73 L 1.399,1.704 3.605,5.173 H 6.222 L 2.738,-0.015 6.526,-5.689 H 3.682 L 1.309,-1.932 -1.11,-5.689 h -2.693 z" /></g><g
       id="g46"><g
         clip-path="url(#clipPath52)"
         id="g48"><g
           transform="translate(443.1373,452.0223)"
           id="g54"><path
             id="path56"
             style="fill:#ffffff;fill-opacity:1;fill-rule:nonzero;stroke:none"
             d="m 0,0 h 1.856 c 1.111,0 2.1,0.243 2.1,1.627 0,1.385 -0.989,1.628 -2.1,1.628 H 0 Z M -2.388,5.111 H 2.51 c 2.708,0 3.758,-1.719 3.758,-3.484 0,-1.765 -1.05,-3.483 -3.758,-3.483 H 0 v -3.895 h -2.388 z" /></g><g
           transform="translate(454.4229,452.2196)"
           id="g58"><path
             id="path60"
             style="fill:#ffffff;fill-opacity:1;fill-rule:nonzero;stroke:none"
             d="M 0,0 H 2.617 C 3.682,0 4.26,0.456 4.26,1.552 4.26,2.602 3.682,3.058 2.617,3.058 H 0 Z m -2.388,4.914 h 5.857 c 1.947,0 3.179,-1.354 3.179,-2.997 0,-1.278 -0.517,-2.236 -1.719,-2.724 v -0.03 C 6.101,-1.141 6.435,-2.282 6.511,-3.377 6.557,-4.062 6.542,-5.34 6.968,-5.948 H 4.579 C 4.29,-5.264 4.321,-4.214 4.199,-3.347 4.032,-2.206 3.59,-1.704 2.389,-1.704 H 0 v -4.244 h -2.388 z" /></g><g
           transform="translate(464.1568,457.1337)"
           id="g62"><path
             id="path64"
             style="fill:#ffffff;fill-opacity:1;fill-rule:nonzero;stroke:none"
             d="M 0,0 H 8.124 V -2.009 H 2.388 V -4.336 H 7.652 V -6.192 H 2.388 v -2.662 h 5.857 v -2.008 H 0 Z" /></g><g
           transform="translate(476.7809,449.8768)"
           id="g66"><path
             id="path68"
             style="fill:#ffffff;fill-opacity:1;fill-rule:nonzero;stroke:none"
             d="m 0,0 c 0,-1.445 1.126,-2.008 2.404,-2.008 0.837,0 2.115,0.243 2.115,1.354 0,1.172 -1.628,1.369 -3.226,1.795 -1.612,0.426 -3.24,1.049 -3.24,3.088 0,2.221 2.099,3.287 4.062,3.287 2.267,0 4.351,-0.99 4.351,-3.499 H 4.153 C 4.077,5.324 3.149,5.659 2.008,5.659 1.248,5.659 0.365,5.34 0.365,4.427 0.365,3.59 0.883,3.483 3.606,2.784 4.397,2.586 6.831,2.084 6.831,-0.38 c 0,-1.993 -1.567,-3.484 -4.518,-3.484 -2.404,0 -4.656,1.186 -4.625,3.864 z" /></g><g
           transform="translate(487.7926,449.8768)"
           id="g70"><path
             id="path72"
             style="fill:#ffffff;fill-opacity:1;fill-rule:nonzero;stroke:none"
             d="m 0,0 c 0,-1.445 1.126,-2.008 2.404,-2.008 0.837,0 2.115,0.243 2.115,1.354 0,1.172 -1.628,1.369 -3.226,1.795 -1.612,0.426 -3.24,1.049 -3.24,3.088 0,2.221 2.099,3.287 4.062,3.287 2.267,0 4.351,-0.99 4.351,-3.499 H 4.153 C 4.077,5.324 3.149,5.659 2.008,5.659 1.248,5.659 0.365,5.34 0.365,4.427 0.365,3.59 0.883,3.483 3.606,2.784 4.397,2.586 6.831,2.084 6.831,-0.38 c 0,-1.993 -1.567,-3.484 -4.518,-3.484 -2.404,0 -4.656,1.186 -4.625,3.864 z" /></g><g
           transform="translate(435.0382,539.5692)"
           id="g74"><path
             id="path76"
             style="fill:#ffffff;fill-opacity:1;fill-rule:nonzero;stroke:none"
             d="m 0,0 h -15.905 l -7.888,-37.111 -3.381,-15.905 h 15.905 40.261 l 3.381,15.905 H -7.888 Z" /></g><g
           transform="translate(450.8145,613.7919)"
           id="g78"><path
             id="path80"
             style="fill:#ffffff;fill-opacity:1;fill-rule:nonzero;stroke:none"
             d="m 0,0 h -15.905 l -3.381,-15.905 -7.888,-37.112 h 15.905 l 7.888,37.112 H 32.501 L 35.882,0 Z" /></g><g
           transform="translate(378.8111,558.1249)"
           id="g82"><path
             id="path84"
             style="fill:#ffffff;fill-opacity:1;fill-rule:nonzero;stroke:none"
             d="m 0,0 h -20.237 l -3.38,-15.905 h 20.236 z" /></g><g
           transform="translate(441.2403,558.1249)"
           id="g86"><path
             id="path88"
             style="fill:#ffffff;fill-opacity:1;fill-rule:nonzero;stroke:none"
             d="m 0,0 h -2.258 -15.905 -2.258 -2.259 -18.424 l -3.381,-15.905 h 18.424 2.259 2.258 15.905 2.258 2.259 23.912 L 26.171,0 H 2.258 Z" /></g><g
           transform="translate(397.9893,560.7753)"
           id="g90"><path
             id="path92"
             style="fill:#ffffff;fill-opacity:1;fill-rule:nonzero;stroke:none"
             d="M 0,0 16.34,76.874 H 0.435 L -15.905,0 l -0.563,-2.65 -3.381,-15.906 -0.564,-2.65 -6.248,-29.398 h 15.905 l 6.249,29.398 0.563,2.65 3.381,15.906 z" /></g><g
           transform="translate(187.6671,106.1258)"
           id="g94"><path
             id="path96"
             style="fill:#003764;fill-opacity:1;fill-rule:nonzero;stroke:none"
             d="M 0,0 H 2.388 V -4.169 H 6.785 V 0 H 9.173 V -10.862 H 6.785 v 4.685 H 2.388 v -4.685 H 0 Z" /></g><g
           transform="translate(200.0782,106.1258)"
           id="g98"><path
             id="path100"
             style="fill:#003764;fill-opacity:1;fill-rule:nonzero;stroke:none"
             d="M 0,0 H 8.124 V -2.009 H 2.388 V -4.336 H 7.652 V -6.192 H 2.388 v -2.662 h 5.857 v -2.008 H 0 Z" /></g><g
           transform="translate(213.8136,99.4628)"
           id="g102"><path
             id="path104"
             style="fill:#003764;fill-opacity:1;fill-rule:nonzero;stroke:none"
             d="M 0,0 H 2.814 L 1.445,3.985 H 1.415 Z M 0.228,6.663 H 2.677 L 6.739,-4.199 H 4.26 L 3.438,-1.78 h -4.062 l -0.852,-2.419 h -2.419 z" /></g><g
           transform="translate(222.6344,106.1258)"
           id="g106"><path
             id="path108"
             style="fill:#003764;fill-opacity:1;fill-rule:nonzero;stroke:none"
             d="m 0,0 h 2.388 v -8.854 h 5.295 v -2.008 H 0 Z" /></g><g
           transform="translate(233.5098,104.1171)"
           id="g110"><path
             id="path112"
             style="fill:#003764;fill-opacity:1;fill-rule:nonzero;stroke:none"
             d="M 0,0 H -3.255 V 2.009 H 5.644 V 0 H 2.389 V -8.854 H 0 Z" /></g><g
           transform="translate(241.5401,106.1258)"
           id="g114"><path
             id="path116"
             style="fill:#003764;fill-opacity:1;fill-rule:nonzero;stroke:none"
             d="M 0,0 H 2.388 V -4.169 H 6.785 V 0 H 9.173 V -10.862 H 6.785 v 4.685 H 2.388 v -4.685 H 0 Z" /></g><g
           transform="translate(259.3209,106.1258)"
           id="g118"><path
             id="path120"
             style="fill:#003764;fill-opacity:1;fill-rule:nonzero;stroke:none"
             d="M 0,0 H 8.124 V -2.009 H 2.388 V -4.336 H 7.652 V -6.192 H 2.388 v -2.662 h 5.857 v -2.008 H 0 Z" /></g><g
           transform="translate(272.9796,100.953)"
           id="g122"><path
             id="path124"
             style="fill:#003764;fill-opacity:1;fill-rule:nonzero;stroke:none"
             d="M 0,0 -3.499,5.173 H -0.73 L 1.399,1.704 3.605,5.173 H 6.222 L 2.738,-0.015 6.526,-5.689 H 3.682 L 1.309,-1.932 -1.11,-5.689 h -2.693 z" /></g><g
           transform="translate(283.9913,101.0145)"
           id="g126"><path
             id="path128"
             style="fill:#003764;fill-opacity:1;fill-rule:nonzero;stroke:none"
             d="m 0,0 h 1.856 c 1.111,0 2.1,0.243 2.1,1.627 0,1.385 -0.989,1.628 -2.1,1.628 H 0 Z M -2.388,5.111 H 2.51 c 2.708,0 3.758,-1.719 3.758,-3.484 0,-1.765 -1.05,-3.483 -3.758,-3.483 H 0 v -3.895 h -2.388 z" /></g><g
           transform="translate(295.2769,101.2118)"
           id="g130"><path
             id="path132"
             style="fill:#003764;fill-opacity:1;fill-rule:nonzero;stroke:none"
             d="M 0,0 H 2.617 C 3.682,0 4.26,0.456 4.26,1.552 4.26,2.602 3.682,3.058 2.617,3.058 H 0 Z m -2.388,4.914 h 5.857 c 1.947,0 3.179,-1.354 3.179,-2.997 0,-1.278 -0.517,-2.236 -1.719,-2.724 v -0.03 C 6.101,-1.141 6.435,-2.282 6.511,-3.377 6.557,-4.062 6.542,-5.34 6.968,-5.948 H 4.579 C 4.29,-5.264 4.321,-4.214 4.199,-3.347 4.032,-2.206 3.59,-1.704 2.389,-1.704 H 0 v -4.244 h -2.388 z" /></g><g
           transform="translate(305.0108,106.1258)"
           id="g134"><path
             id="path136"
             style="fill:#003764;fill-opacity:1;fill-rule:nonzero;stroke:none"
             d="M 0,0 H 8.124 V -2.009 H 2.388 V -4.336 H 7.652 V -6.192 H 2.388 v -2.662 h 5.857 v -2.008 H 0 Z" /></g><g
           transform="translate(317.6349,98.869)"
           id="g138"><path
             id="path140"
             style="fill:#003764;fill-opacity:1;fill-rule:nonzero;stroke:none"
             d="m 0,0 c 0,-1.445 1.126,-2.008 2.404,-2.008 0.837,0 2.115,0.243 2.115,1.354 0,1.172 -1.628,1.369 -3.226,1.795 -1.612,0.426 -3.24,1.049 -3.24,3.088 0,2.221 2.099,3.287 4.062,3.287 2.267,0 4.351,-0.99 4.351,-3.499 H 4.153 C 4.077,5.324 3.149,5.659 2.008,5.659 1.248,5.659 0.365,5.34 0.365,4.427 0.365,3.59 0.883,3.483 3.606,2.784 4.397,2.586 6.831,2.084 6.831,-0.38 c 0,-1.993 -1.567,-3.484 -4.518,-3.484 -2.404,0 -4.656,1.186 -4.625,3.864 z" /></g><g
           transform="translate(328.6466,98.869)"
           id="g142"><path
             id="path144"
             style="fill:#003764;fill-opacity:1;fill-rule:nonzero;stroke:none"
             d="m 0,0 c 0,-1.445 1.126,-2.008 2.404,-2.008 0.837,0 2.115,0.243 2.115,1.354 0,1.172 -1.628,1.369 -3.226,1.795 -1.612,0.426 -3.24,1.049 -3.24,3.088 0,2.221 2.099,3.287 4.062,3.287 2.267,0 4.351,-0.99 4.351,-3.499 H 4.153 C 4.077,5.324 3.149,5.659 2.008,5.659 1.248,5.659 0.365,5.34 0.365,4.427 0.365,3.59 0.883,3.483 3.606,2.784 4.397,2.586 6.831,2.084 6.831,-0.38 c 0,-1.993 -1.567,-3.484 -4.518,-3.484 -2.404,0 -4.656,1.186 -4.625,3.864 z" /></g><g
           transform="translate(275.8922,188.5614)"
           id="g146"><path
             id="path148"
             style="fill:#003764;fill-opacity:1;fill-rule:nonzero;stroke:none"
             d="m 0,0 h -15.905 l -7.888,-37.11 -3.381,-15.906 h 15.905 40.261 l 3.381,15.906 H -7.888 Z" /></g><g
           transform="translate(291.6685,262.7841)"
           id="g150"><path
             id="path152"
             style="fill:#003764;fill-opacity:1;fill-rule:nonzero;stroke:none"
             d="m 0,0 h -15.905 l -3.381,-15.905 -7.888,-37.111 h 15.905 l 7.888,37.111 H 32.501 L 35.882,0 Z" /></g><g
           transform="translate(219.6651,207.1171)"
           id="g154"><path
             id="path156"
             style="fill:#003764;fill-opacity:1;fill-rule:nonzero;stroke:none"
             d="m 0,0 h -20.237 l -3.38,-15.904 h 20.236 z" /></g><g
           transform="translate(282.0943,207.1171)"
           id="g158"><path
             id="path160"
             style="fill:#003764;fill-opacity:1;fill-rule:nonzero;stroke:none"
             d="m 0,0 h -2.258 -15.905 -2.258 -2.259 -18.425 l -3.38,-15.904 h 18.424 2.259 2.259 15.904 2.258 2.259 23.912 L 26.171,0 H 2.259 Z" /></g><g
           transform="translate(238.8433,209.7684)"
           id="g162"><path
             id="path164"
             style="fill:#003764;fill-opacity:1;fill-rule:nonzero;stroke:none"
             d="M 0,0 16.34,76.873 H 0.435 L -15.905,0 l -0.563,-2.651 -3.381,-15.905 -0.564,-2.651 -6.248,-29.398 h 15.905 l 6.249,29.398 0.563,2.651 3.381,15.905 z" /></g><g
           transform="translate(489.2276,106.1258)"
           id="g166"><path
             id="path168"
             style="fill:#000000;fill-opacity:1;fill-rule:nonzero;stroke:none"
             d="M 0,0 H 2.388 V -4.169 H 6.785 V 0 H 9.173 V -10.862 H 6.785 v 4.685 H 2.388 v -4.685 H 0 Z" /></g><g
           transform="translate(501.6388,106.1258)"
           id="g170"><path
             id="path172"
             style="fill:#000000;fill-opacity:1;fill-rule:nonzero;stroke:none"
             d="M 0,0 H 8.124 V -2.009 H 2.388 V -4.336 H 7.652 V -6.192 H 2.388 v -2.662 h 5.857 v -2.008 H 0 Z" /></g><g
           transform="translate(515.3741,99.4628)"
           id="g174"><path
             id="path176"
             style="fill:#000000;fill-opacity:1;fill-rule:nonzero;stroke:none"
             d="M 0,0 H 2.814 L 1.445,3.985 H 1.415 Z M 0.228,6.663 H 2.677 L 6.739,-4.199 H 4.26 L 3.438,-1.78 h -4.062 l -0.852,-2.419 h -2.419 z" /></g><g
           transform="translate(524.1949,106.1258)"
           id="g178"><path
             id="path180"
             style="fill:#000000;fill-opacity:1;fill-rule:nonzero;stroke:none"
             d="m 0,0 h 2.388 v -8.854 h 5.295 v -2.008 H 0 Z" /></g><g
           transform="translate(535.0704,104.1171)"
           id="g182"><path
             id="path184"
             style="fill:#000000;fill-opacity:1;fill-rule:nonzero;stroke:none"
             d="M 0,0 H -3.255 V 2.009 H 5.644 V 0 H 2.389 V -8.854 H 0 Z" /></g><g
           transform="translate(543.1006,106.1258)"
           id="g186"><path
             id="path188"
             style="fill:#000000;fill-opacity:1;fill-rule:nonzero;stroke:none"
             d="M 0,0 H 2.388 V -4.169 H 6.785 V 0 H 9.173 V -10.862 H 6.785 v 4.685 H 2.388 v -4.685 H 0 Z" /></g><g
           transform="translate(560.8814,106.1258)"
           id="g190"><path
             id="path192"
             style="fill:#000000;fill-opacity:1;fill-rule:nonzero;stroke:none"
             d="M 0,0 H 8.124 V -2.009 H 2.388 V -4.336 H 7.652 V -6.192 H 2.388 v -2.662 h 5.857 v -2.008 H 0 Z" /></g><g
           transform="translate(574.5401,100.953)"
           id="g194"><path
             id="path196"
             style="fill:#000000;fill-opacity:1;fill-rule:nonzero;stroke:none"
             d="M 0,0 -3.499,5.173 H -0.73 L 1.399,1.704 3.605,5.173 H 6.222 L 2.738,-0.015 6.526,-5.689 H 3.682 L 1.309,-1.932 -1.11,-5.689 h -2.693 z" /></g><g
           transform="translate(585.5518,101.0145)"
           id="g198"><path
             id="path200"
             style="fill:#000000;fill-opacity:1;fill-rule:nonzero;stroke:none"
             d="m 0,0 h 1.856 c 1.111,0 2.1,0.243 2.1,1.627 0,1.385 -0.989,1.628 -2.1,1.628 H 0 Z M -2.388,5.111 H 2.51 c 2.708,0 3.758,-1.719 3.758,-3.484 0,-1.765 -1.05,-3.483 -3.758,-3.483 H 0 v -3.895 h -2.388 z" /></g><g
           transform="translate(596.8375,101.2118)"
           id="g202"><path
             id="path204"
             style="fill:#000000;fill-opacity:1;fill-rule:nonzero;stroke:none"
             d="M 0,0 H 2.617 C 3.682,0 4.26,0.456 4.26,1.552 4.26,2.602 3.682,3.058 2.617,3.058 H 0 Z m -2.388,4.914 h 5.857 c 1.947,0 3.179,-1.354 3.179,-2.997 0,-1.278 -0.517,-2.236 -1.719,-2.724 v -0.03 C 6.101,-1.141 6.435,-2.282 6.511,-3.377 6.557,-4.062 6.542,-5.34 6.968,-5.948 H 4.579 C 4.29,-5.264 4.321,-4.214 4.199,-3.347 4.032,-2.206 3.59,-1.704 2.389,-1.704 H 0 v -4.244 h -2.388 z" /></g><g
           transform="translate(606.5714,106.1258)"
           id="g206"><path
             id="path208"
             style="fill:#000000;fill-opacity:1;fill-rule:nonzero;stroke:none"
             d="M 0,0 H 8.124 V -2.009 H 2.388 V -4.336 H 7.652 V -6.192 H 2.388 v -2.662 h 5.857 v -2.008 H 0 Z" /></g><g
           transform="translate(619.1954,98.869)"
           id="g210"><path
             id="path212"
             style="fill:#000000;fill-opacity:1;fill-rule:nonzero;stroke:none"
             d="m 0,0 c 0,-1.445 1.126,-2.008 2.404,-2.008 0.837,0 2.115,0.243 2.115,1.354 0,1.172 -1.628,1.369 -3.226,1.795 -1.612,0.426 -3.24,1.049 -3.24,3.088 0,2.221 2.099,3.287 4.062,3.287 2.267,0 4.351,-0.99 4.351,-3.499 H 4.153 C 4.077,5.324 3.149,5.659 2.008,5.659 1.248,5.659 0.365,5.34 0.365,4.427 0.365,3.59 0.883,3.483 3.606,2.784 4.397,2.586 6.831,2.084 6.831,-0.38 c 0,-1.993 -1.567,-3.484 -4.518,-3.484 -2.404,0 -4.656,1.186 -4.625,3.864 z" /></g><g
           transform="translate(630.2071,98.869)"
           id="g214"><path
             id="path216"
             style="fill:#000000;fill-opacity:1;fill-rule:nonzero;stroke:none"
             d="m 0,0 c 0,-1.445 1.126,-2.008 2.404,-2.008 0.837,0 2.115,0.243 2.115,1.354 0,1.172 -1.628,1.369 -3.226,1.795 -1.612,0.426 -3.24,1.049 -3.24,3.088 0,2.221 2.099,3.287 4.062,3.287 2.267,0 4.351,-0.99 4.351,-3.499 H 4.153 C 4.077,5.324 3.149,5.659 2.008,5.659 1.248,5.659 0.365,5.34 0.365,4.427 0.365,3.59 0.883,3.483 3.606,2.784 4.397,2.586 6.831,2.084 6.831,-0.38 c 0,-1.993 -1.567,-3.484 -4.518,-3.484 -2.404,0 -4.656,1.186 -4.625,3.864 z" /></g><g
           transform="translate(577.4527,188.5614)"
           id="g218"><path
             id="path220"
             style="fill:#000000;fill-opacity:1;fill-rule:nonzero;stroke:none"
             d="m 0,0 h -15.905 l -7.888,-37.11 -3.381,-15.906 h 15.905 40.261 l 3.381,15.906 H -7.888 Z" /></g><g
           transform="translate(593.2291,262.7841)"
           id="g222"><path
             id="path224"
             style="fill:#000000;fill-opacity:1;fill-rule:nonzero;stroke:none"
             d="m 0,0 h -15.905 l -3.38,-15.905 -7.889,-37.111 h 15.905 l 7.889,37.111 H 32.501 L 35.882,0 Z" /></g><g
           transform="translate(521.2261,207.1171)"
           id="g226"><path
             id="path228"
             style="fill:#000000;fill-opacity:1;fill-rule:nonzero;stroke:none"
             d="m 0,0 h -20.237 l -3.381,-15.904 h 20.237 z" /></g><g
           transform="translate(583.6553,207.1171)"
           id="g230"><path
             id="path232"
             style="fill:#000000;fill-opacity:1;fill-rule:nonzero;stroke:none"
             d="m 0,0 h -2.258 -15.905 -2.259 -2.258 -18.424 l -3.381,-15.904 h 18.424 2.258 2.259 15.905 2.258 2.258 23.913 L 26.17,0 H 2.258 Z" /></g><g
           transform="translate(540.4039,209.7684)"
           id="g234"><path
             id="path236"
             style="fill:#000000;fill-opacity:1;fill-rule:nonzero;stroke:none"
             d="M 0,0 16.34,76.873 H 0.435 L -15.905,0 l -0.563,-2.651 -3.381,-15.905 -0.563,-2.651 -6.249,-29.398 h 15.905 l 6.249,29.398 0.563,2.651 3.381,15.905 z" /></g></g></g></g></svg>